# xmcd
#
# Track frame offsets:
#	182
#	19575
#	34540
#	56320
#	67487
#	86065
#	102565
#	125247
#	140682
#	160180
#	181982
#	199755
#	215467
#
# Disc length: 3157 seconds
#
# Revision: 3
# Processed by: cddbd v1.5.2PL0 Copyright (c) Steve Scherf et al.
# Submitted via: audiograbber 1.83.01
#
DISCID=c10c530d
DTITLE=Allison Mose - the earth wants you
DYEAR=1994
DGENRE=Jazz
TTITLE0=Certified Senior Citizen
TTITLE1=This Ain't Me
TTITLE2=You Can't Push People Around
TTITLE3=My Ideal
TTITLE4=The Earth Wants You
TTITLE5=Cabaret Card
TTITLE6=Red Wagon
TTITLE7=Children Of The Future
TTITLE8=I Don't Love You
TTITLE9=Who's In, Who's Out
TTITLE10=Natural Born Malcontent
TTITLE11=What A Shame
TTITLE12=Variation On Dixie
EXTD=
EXTT0=
EXTT1=
EXTT2=
EXTT3=
EXTT4=
EXTT5=
EXTT6=
EXTT7=
EXTT8=
EXTT9=
EXTT10=
EXTT11=
EXTT12=
PLAYORDER=
